# xmcd
#
# Track frame offsets:
#	150
#	51404
#	103921
#	153656
#	230651
#
# Disc length: 3566 seconds
# Revision: 0
# Processed by: cddbd v1.5.2PL0 Copyright (c) Steve Scherf et al.
# Submitted via: dBpowerAMP V12.0
#
DISCID=430dec05
DTITLE=Larry Crane - The Goals and Resistance Course Week 1 CD 02
DYEAR=1998
DGENRE=Speech
TTITLE0=The Goals and Resistance Course Week 1 pt 7
TTITLE1=The Goals and Resistance Course Week 1 pt 8
TTITLE2=The Goals and Resistance Course Week 1 pt 9
TTITLE3=The Goals and Resistance Course Week 1 pt 10
TTITLE4=The Goals and Resistance Course Week 1 pt 11
EXTD=
EXTT0=
EXTT1=
EXTT2=
EXTT3=
EXTT4=
PLAYORDER=
